<svg width="244" height="115" viewBox="0 0 244 115" fill="none" xmlns="http://www.w3.org/2000/svg">
<g clip-path="url(#clip0_323_225)">
<path d="M0 29.0925V50.4011L49.5425 21.1063V0L0 29.0925Z" fill="#0066FF"/>
<path d="M98.7391 28.706L49.5425 0V21.1063L69.906 33.3248L0 73.5869V86.2285L10.9832 92.1352L80.798 49.2051L80.7618 75.2796L98.7391 86.0076V28.706Z" fill="#0066FF"/>
<path d="M80.7943 75.2805V75.2989L31.598 104.097L49.5388 114.825L98.7354 86.1188V86.0085L80.7943 75.2805Z" fill="#0066FF"/>
<path d="M147.119 37.5051V83.4685H137.636V37.5051H147.119Z" fill="#0066FF"/>
<path d="M170.569 75.6131V83.0138C166.01 84.5287 162.225 84.2906 159.215 82.2998C156.204 80.3088 154.72 76.76 154.763 71.653V42.374H163.021L163.666 49.84H169.601V58.0846H163.666V71.5881C163.666 73.4924 164.203 74.7692 165.279 75.4182C166.397 76.0243 168.16 76.0892 170.569 75.6131Z" fill="#0066FF"/>
<path d="M185.557 37.5051V68.3419C185.557 70.3762 186.374 71.956 188.009 73.0812C189.643 74.2063 191.6 74.7692 193.879 74.7692C196.245 74.7692 198.245 74.2063 199.879 73.0812C201.513 71.956 202.33 70.3762 202.33 68.3419V37.5051H211.878V68.3419C211.878 73.3192 210.115 77.1929 206.588 79.9625C203.062 82.7325 198.825 84.1174 193.879 84.1174C189.019 84.1174 184.826 82.7325 181.299 79.9625C177.773 77.1929 176.01 73.3192 176.01 68.3419V37.5051H185.557Z" fill="#0066FF"/>
<path d="M217.553 73.4706C217.553 69.835 218.693 67.1086 220.973 65.2907C223.295 63.4298 226.112 62.4993 229.424 62.4993C231.402 62.4993 233.38 62.8455 235.359 63.538V61.1358C235.359 58.0199 233.639 56.4618 230.198 56.4618C228.994 56.4618 227.725 56.7645 226.392 57.3706C225.058 57.9764 223.983 58.7124 223.166 59.578L218.779 54.8387C221.962 51.16 225.983 49.2771 230.843 49.1907C234.499 49.1907 237.595 50.2294 240.133 52.3069C242.713 54.3411 244.003 57.2839 244.003 61.1358V81.6505C239.66 83.2953 235.466 84.1174 231.424 84.1174C226.822 84.1174 223.359 83.1868 221.037 81.326C218.715 79.4217 217.553 76.8031 217.553 73.4706ZM235.101 76.7167V69.9C233.725 69.3806 232.37 69.1211 231.037 69.1211C229.402 69.1211 228.155 69.4888 227.295 70.2248C226.478 70.9605 226.069 71.956 226.069 73.2111C226.069 75.8511 227.811 77.1711 231.295 77.1711C232.671 77.1711 233.939 77.0197 235.101 76.7167Z" fill="#0066FF"/>
</g>
<defs>
<clipPath id="clip0_323_225">
<rect width="244" height="115" fill="white"/>
</clipPath>
</defs>
</svg>
