<svg width="274" height="41" viewBox="0 0 274 41" fill="none" xmlns="http://www.w3.org/2000/svg">
<g clip-path="url(#clip0_145_2599)">
<mask id="mask0_145_2599" style="mask-type:luminance" maskUnits="userSpaceOnUse" x="0" y="0" width="274" height="41">
<path d="M274 0H0V41H274V0Z" fill="white"/>
</mask>
<g mask="url(#mask0_145_2599)">
<path d="M106.932 0L90.0957 25.3563L73.2563 0H66.2709H56.9584H49.9733L33.1374 25.3563L16.2978 0H0L27.2247 41H39.0498L61.6164 7.01307L84.1833 41H96.0047L123.229 0H106.932Z" fill="#0066FF"/>
<path d="M149.21 0H133.647L106.422 41H122.72L149.712 0.351964L149.21 0Z" fill="#0066FF"/>
<path d="M240.044 0H196.886V37.8286L171.766 0H159.694L132.469 41H148.767L165.73 15.4564L182.693 41H239.975C245.662 41 251.168 38.645 254.982 34.3016C258.197 30.6358 260.16 25.7832 260.16 20.4701C260.16 16.0256 258.789 11.9031 256.459 8.52951C252.702 3.09653 246.521 0 240.044 0ZM240.095 27.2697H210.34V13.6667H240.095C243.739 13.6667 246.702 16.7183 246.702 20.4701C246.702 24.2218 243.739 27.2697 240.095 27.2697Z" fill="#0066FF"/>
<path d="M267.895 12.9442C271.267 12.9442 274 10.1295 274 6.6575C274 3.18549 271.267 0.37085 267.895 0.37085C264.523 0.37085 261.79 3.18549 261.79 6.6575C261.79 10.1295 264.523 12.9442 267.895 12.9442Z" fill="#0066FF"/>
</g>
</g>
<defs>
<clipPath id="clip0_145_2599">
<rect width="274" height="41" fill="white"/>
</clipPath>
</defs>
</svg>
