<?xml version="1.0" standalone="no"?>
<!DOCTYPE svg PUBLIC "-//W3C//DTD SVG 20010904//EN"
 "http://www.w3.org/TR/2001/REC-SVG-20010904/DTD/svg10.dtd">
<svg version="1.0" xmlns="http://www.w3.org/2000/svg"
 width="980.000000pt" height="570.000000pt" viewBox="0 0 980.000000 570.000000"
 preserveAspectRatio="xMidYMid meet">

<g transform="translate(0.000000,570.000000) scale(0.100000,-0.100000)"
fill="#000000" stroke="none">
<path d="M2448 3168 l-2448 -2521 233 -226 c127 -124 275 -268 328 -319 l97
-93 2117 2180 c1164 1200 2121 2181 2125 2181 4 0 961 -981 2125 -2180 l2118
-2181 81 78 c44 43 192 186 328 319 l248 241 -2446 2519 c-1346 1385 -2449
2520 -2453 2521 -3 1 -1107 -1132 -2453 -2519z"/>
</g>
</svg>
